# xmcd
#
# Track frame offsets: 
#        150
#        21274
#        45146
#        61682
#        83481
#        106833
#        131816
#        153755
#        181666
#        204645
#        216965
#        235934
#        253558
#
# Disc length: 3655 seconds
#
# Revision: 2
# Processed by: cddbd v1.5.2PL0 Copyright (c) Steve Scherf et al.
# Submitted via: ExactAudioCopy v0.95b4
#
DISCID=9b0e450d
DTITLE=Sol Latino - EtnoFusión
DYEAR=2003
DGENRE=Latin
TTITLE0=Intro
TTITLE1=Tierras Mayas
TTITLE2=Hun Hunahpu
TTITLE3=El Negrito Y Las Ovejas
TTITLE4=Mia
TTITLE5=Cautiva
TTITLE6=Bailando Con La Llorona
TTITLE7=Canon En D
TTITLE8=Meditación 1
TTITLE9=Meditación 2
TTITLE10=Valles Tropicales
TTITLE11=Solsticio
TTITLE12=El Negrito Y Las Ovejas V.T.
EXTD=
EXTT0=
EXTT1=
EXTT2=
EXTT3=
EXTT4=
EXTT5=
EXTT6=
EXTT7=
EXTT8=
EXTT9=
EXTT10=
EXTT11=
EXTT12=
PLAYORDER=
